<?xml version="1.0" encoding="utf-8"?>
<!-- Generator: Adobe Illustrator 22.1.0, SVG Export Plug-In . SVG Version: 6.00 Build 0)  -->
<svg version="1.1" id="Layer_1" xmlns="http://www.w3.org/2000/svg" xmlns:xlink="http://www.w3.org/1999/xlink" x="0px" y="0px"
	 viewBox="0 0 585 127" style="enable-background:new 0 0 585 127;" xml:space="preserve">
<style type="text/css">
	.st0{fill:#CE1126;}
	.st1{fill:#FFFFFF;}
</style>
<title>LOGO FINAL - WEB</title>
<desc>Created with Sketch.</desc>
<g id="Logo_1_">
	<rect id="Rectangle-4-Copy-18_1_" x="0.1" class="st0" width="54.7" height="109.5"/>
	<rect id="Rectangle-4-Copy-19_1_" x="119.8" class="st0" width="54.7" height="109.5"/>
	<rect id="Rectangle-4-Copy-20_1_" x="59.9" class="st0" width="54.7" height="109.5"/>
	<rect id="Rectangle-5-Copy-18_1_" y="114.5" class="st0" width="55.1" height="12.3"/>
	<rect id="Rectangle-5-Copy-19_1_" x="119.7" y="114.5" class="st0" width="55.1" height="12.3"/>
	<rect id="Rectangle-5-Copy-20_1_" x="59.9" y="114.5" class="st0" width="55.1" height="12.3"/>
	<polygon id="F-Copy-14_1_" class="st1" points="37.2,85.9 23.4,85.9 23.4,99.7 15.4,99.7 15.4,65.3 39.6,65.3 39.6,71.5 23.4,71.5 
		23.4,79.7 37.2,79.7 	"/>
	<path id="R-Copy-14_1_" class="st1" d="M81.2,86.5v13.2h-8V65.3h13.2c4,0,7.1,0.9,9.5,2.8c2.3,1.8,3.5,4.4,3.5,7.6
		c0,1.8-0.5,3.3-1.4,4.6c-0.9,1.3-2.3,2.3-4.1,3.1c2.1,0.6,3.6,1.6,4.5,3s1.4,3.1,1.4,5.2v2.2c0,0.9,0.1,1.9,0.4,3.1
		c0.3,1.1,0.7,2,1.4,2.5v0.5h-8.2c-0.6-0.5-1-1.4-1.2-2.6c-0.2-1.2-0.3-2.4-0.3-3.4v-2.1c0-1.6-0.4-2.9-1.3-3.8
		c-0.9-0.9-2.1-1.3-3.8-1.3H81.2z M81.2,80.4h5.3c1.6,0,2.8-0.4,3.7-1.1s1.3-1.8,1.3-3.2c0-1.4-0.4-2.5-1.3-3.4s-2.1-1.3-3.7-1.3
		h-5.2V80.4z"/>
	<path id="P-Copy-14_1_" class="st1" d="M141.6,87.9v11.8h-8V65.3h14c4.1,0,7.3,1,9.7,3.1s3.6,4.8,3.6,8.2c0,3.4-1.2,6.1-3.6,8.2
		c-2.4,2.1-5.6,3.1-9.7,3.1H141.6z M141.6,81.8h5.9c1.7,0,3-0.5,4-1.4c0.9-1,1.4-2.2,1.4-3.7c0-1.5-0.5-2.8-1.4-3.8
		c-0.9-1-2.2-1.5-4-1.5h-5.9V81.8z"/>
	<polygon id="Path_19_" points="204.5,101.3 197.6,101.3 197.6,66.9 204.5,66.9 	"/>
	<polygon id="Path_18_" points="242.4,101.3 235.5,101.3 221.6,77.8 221.5,77.8 221.5,101.3 214.6,101.3 214.6,66.9 221.5,66.9 
		235.4,90.4 235.5,90.4 235.5,66.9 242.4,66.9 	"/>
	<path id="Path_17_" d="M269.6,92.3c0-1.3-0.5-2.4-1.4-3.2s-2.6-1.6-4.9-2.3c-4.1-1.2-7.2-2.6-9.3-4.2c-2.1-1.6-3.1-3.8-3.1-6.7
		c0-2.8,1.2-5.1,3.6-6.9c2.4-1.8,5.5-2.7,9.2-2.7c3.8,0,6.9,1,9.2,3c2.4,2,3.5,4.5,3.4,7.4l0,0.1h-6.7c0-1.6-0.5-2.9-1.6-3.9
		c-1.1-1-2.6-1.5-4.5-1.5c-1.8,0-3.3,0.4-4.3,1.2c-1,0.8-1.5,1.9-1.5,3.1c0,1.2,0.5,2.1,1.6,2.9s2.9,1.5,5.6,2.4
		c3.8,1.1,6.7,2.4,8.6,4.2c2,1.7,2.9,4,2.9,6.8c0,2.9-1.2,5.3-3.5,7c-2.3,1.7-5.4,2.5-9.2,2.5c-3.7,0-7-1-9.8-2.9
		c-2.8-1.9-4.1-4.6-4.1-8.1l0-0.1h6.7c0,2,0.6,3.5,1.9,4.5s3,1.4,5.2,1.4c1.9,0,3.3-0.4,4.3-1.2C269.1,94.6,269.6,93.6,269.6,92.3z"
		/>
	<polygon id="Path_16_" points="308.2,72.2 298.5,72.2 298.5,101.3 291.6,101.3 291.6,72.2 281.9,72.2 281.9,66.9 308.2,66.9 	"/>
	<path id="Combined-Shape_5_" d="M331.1,93.9H319l-2.3,7.4h-7l11.8-34.4h7.1l11.8,34.4h-7L331.1,93.9z M320.7,88.5h8.7L325.1,75H325
		L320.7,88.5z"/>
	<polygon id="Path_15_" points="353.7,96 369,96 369,101.3 346.8,101.3 346.8,66.9 353.7,66.9 	"/>
	<polygon id="Path_14_" points="383.1,96 398.4,96 398.4,101.3 376.2,101.3 376.2,66.9 383.1,66.9 	"/>
	<path id="Combined-Shape_4_" d="M424.5,93.9h-12.1l-2.3,7.4h-7l11.8-34.4h7.1l11.8,34.4h-7L424.5,93.9z M414.1,88.5h8.7L418.5,75
		h-0.1L414.1,88.5z"/>
	<polygon id="Path_13_" points="462.2,72.2 452.5,72.2 452.5,101.3 445.6,101.3 445.6,72.2 435.9,72.2 435.9,66.9 462.2,66.9 	"/>
	<polygon id="Path_12_" points="476.8,101.3 469.9,101.3 469.9,66.9 476.8,66.9 	"/>
	<path id="Combined-Shape_3_" d="M514.5,87.2c0,4.2-1.3,7.7-4,10.5c-2.7,2.8-6.1,4.1-10.4,4.1c-4.2,0-7.7-1.4-10.3-4.1
		s-4-6.2-4-10.5V81c0-4.2,1.3-7.7,4-10.4c2.6-2.8,6.1-4.1,10.3-4.1c4.3,0,7.7,1.4,10.4,4.1c2.7,2.8,4,6.2,4,10.4V87.2z M507.6,81
		c0-2.7-0.7-4.9-2-6.6c-1.3-1.7-3.2-2.6-5.5-2.6s-4.2,0.9-5.5,2.6c-1.3,1.7-1.9,3.9-1.9,6.6v6.2c0,2.7,0.7,4.9,2,6.7
		c1.3,1.7,3.1,2.6,5.5,2.6c2.4,0,4.2-0.9,5.5-2.6c1.3-1.7,2-3.9,2-6.7V81z"/>
	<polygon id="Path_11_" points="550.8,101.3 543.9,101.3 530.1,77.8 529.9,77.8 529.9,101.3 523,101.3 523,66.9 529.9,66.9 
		543.8,90.4 543.9,90.4 543.9,66.9 550.8,66.9 	"/>
	<path id="Path_10_" d="M578.1,92.3c0-1.3-0.5-2.4-1.4-3.2s-2.6-1.6-4.9-2.3c-4.1-1.2-7.2-2.6-9.3-4.2c-2.1-1.6-3.1-3.8-3.1-6.7
		c0-2.8,1.2-5.1,3.6-6.9c2.4-1.8,5.5-2.7,9.2-2.7c3.8,0,6.9,1,9.2,3c2.4,2,3.5,4.5,3.4,7.4l0,0.1h-6.7c0-1.6-0.5-2.9-1.6-3.9
		c-1.1-1-2.6-1.5-4.5-1.5c-1.8,0-3.3,0.4-4.3,1.2c-1,0.8-1.5,1.9-1.5,3.1c0,1.2,0.5,2.1,1.6,2.9s2.9,1.5,5.6,2.4
		c3.8,1.1,6.7,2.4,8.6,4.2c2,1.7,2.9,4,2.9,6.8c0,2.9-1.2,5.3-3.5,7c-2.3,1.7-5.4,2.5-9.2,2.5c-3.7,0-7-1-9.8-2.9
		c-2.8-1.9-4.1-4.6-4.1-8.1l0-0.1h6.7c0,2,0.6,3.5,1.9,4.5c1.3,1,3,1.4,5.2,1.4c1.9,0,3.3-0.4,4.3-1.2S578.1,93.6,578.1,92.3z"/>
</g>
</svg>
